<svg xmlns="http://www.w3.org/2000/svg" xmlns:xlink="http://www.w3.org/1999/xlink" width="500" zoomAndPan="magnify" viewBox="0 0 375 374.999991" height="500" preserveAspectRatio="xMidYMid meet" version="1.0"><defs><clipPath id="e61d058db8"><path d="M 2 57.199219 L 373 57.199219 L 373 312.949219 L 2 312.949219 Z M 2 57.199219 " clip-rule="nonzero"/></clipPath></defs><rect x="-37.5" width="450" fill="#ffffff" y="-37.499999" height="449.999989" fill-opacity="1"/><rect x="-37.5" width="450" fill="#ffffff" y="-37.499999" height="449.999989" fill-opacity="1"/><rect x="-37.5" width="450" fill="#000000" y="-37.499999" height="449.999989" fill-opacity="1"/><g clip-path="url(#e61d058db8)"><path fill="#ff4500" d="M 327.539062 301.464844 L 47.460938 301.464844 C 30.820312 301.464844 17 289.339844 14.273438 273.433594 L 360.691406 273.433594 C 358.035156 289.339844 344.179688 301.464844 327.539062 301.464844 Z M 35.511719 75.601562 C 35.511719 71.558594 38.664062 68.371094 42.703125 68.371094 L 332.230469 68.371094 C 336.269531 68.371094 339.453125 71.558594 339.453125 75.601562 L 339.453125 262.128906 L 35.511719 262.128906 Z M 366.765625 262.195312 L 350.714844 262.195312 L 350.714844 75.601562 C 350.714844 65.445312 342.472656 57.164062 332.265625 57.164062 L 42.703125 57.164062 C 32.558594 57.164062 24.285156 65.445312 24.285156 75.601562 L 24.285156 262.128906 L 8.234375 262.128906 C 5.117188 262.195312 2.621094 264.691406 2.621094 267.816406 C 2.621094 292.558594 22.742188 312.703125 47.460938 312.703125 L 327.539062 312.703125 C 352.257812 312.703125 372.378906 292.558594 372.378906 267.816406 C 372.378906 264.691406 369.917969 262.195312 366.765625 262.195312 " fill-opacity="1" fill-rule="nonzero"/></g><path fill="#ff4500" d="M 307.316406 237.152344 L 67.683594 237.152344 L 67.683594 93.707031 L 307.285156 93.707031 L 307.285156 237.152344 Z M 312.929688 82.503906 L 62.070312 82.503906 C 58.953125 82.503906 56.457031 85 56.457031 88.121094 L 56.457031 242.773438 C 56.457031 245.894531 58.953125 248.394531 62.070312 248.394531 L 312.863281 248.394531 C 315.984375 248.394531 318.476562 245.894531 318.476562 242.773438 L 318.476562 88.121094 C 318.542969 85 315.984375 82.503906 312.929688 82.503906 " fill-opacity="1" fill-rule="nonzero"/><path fill="#ff4500" d="M 171.710938 209.976562 C 172.367188 210.207031 172.957031 210.304688 173.582031 210.304688 C 175.878906 210.304688 178.011719 208.859375 178.832031 206.558594 L 206.375 128.015625 C 207.425781 125.058594 205.851562 121.871094 202.992188 120.851562 C 200.039062 119.800781 196.855469 121.378906 195.804688 124.269531 L 168.265625 202.8125 C 167.277344 205.738281 168.855469 208.925781 171.710938 209.976562 Z M 259.257812 166.597656 L 221.769531 196.339844 C 219.339844 198.246094 218.914062 201.761719 220.851562 204.191406 C 221.933594 205.574219 223.609375 206.328125 225.21875 206.328125 C 226.433594 206.328125 227.648438 205.933594 228.695312 205.113281 L 271.699219 171.035156 C 273.011719 170.015625 273.832031 168.371094 273.832031 166.695312 C 273.832031 165.019531 273.046875 163.410156 271.734375 162.324219 L 226.957031 125.75 C 224.527344 123.8125 221.015625 124.140625 219.113281 126.570312 C 217.140625 129.003906 217.503906 132.519531 219.898438 134.425781 Z M 146.304688 205.113281 C 147.351562 205.933594 148.566406 206.328125 149.78125 206.328125 C 151.457031 206.328125 153.066406 205.574219 154.148438 204.191406 C 156.085938 201.761719 155.660156 198.246094 153.230469 196.339844 L 115.742188 166.597656 L 155.101562 134.425781 C 157.496094 132.484375 157.859375 128.9375 155.886719 126.570312 C 153.953125 124.140625 150.40625 123.8125 148.042969 125.75 L 103.265625 162.324219 C 101.953125 163.410156 101.167969 164.953125 101.167969 166.695312 C 101.167969 168.371094 101.988281 170.015625 103.332031 171.035156 L 146.304688 205.113281 " fill-opacity="1" fill-rule="nonzero"/></svg>